Coordinates
version=1
nRows=21
nColumns=22
inDegrees=yes

Units are S.I. units (second, meters, Newtons, ...)
If the header above contains a line with 'inDegrees', this indicates whether rotational values are in degrees (yes) or radians (no).

endheader
time	pelvis_tilt	pelvis_list	pelvis_rotation	pelvis_tx	pelvis_ty	pelvis_tz	hip_flexion_r	hip_adduction_r	hip_rotation_r	knee_angle_r	ankle_angle_r	subtalar_angle_r	hip_flexion_l	hip_adduction_l	hip_rotation_l	knee_angle_l	ankle_angle_l	subtalar_angle_l	lumbar_extension	lumbar_bending	lumbar_rotation
      0.01000000	      3.01826940	     -0.60895696	      3.43242732	     -0.65550556	      1.08513795	      1.14405395	     -5.81817938	      1.42514065	     -8.88520583	     -9.59539219	     12.99917053	     -2.39404256	     -5.42944433	     -1.67351672	      3.08377603	    -11.14908353	     13.81420049	     -2.12551482	     -0.86139400	     -2.23530640	     -3.81437773
      0.02000000	      2.98728917	     -0.59495839	      3.53544200	     -0.65569136	      1.08514487	      1.14356660	     -5.79691512	      1.39829657	     -9.00955269	     -9.57065357	     12.96019731	     -2.41283338	     -5.42880458	     -1.65044806	      3.15943138	    -11.04808785	     13.74292644	     -2.12641637	     -0.84108270	     -2.22848091	     -3.87201190
      0.03000000	      2.94957256	     -0.55973391	      3.67375304	     -0.65593074	      1.08514208	      1.14296614	     -5.78219576	      1.35009976	     -9.14101140	     -9.52448490	     12.95052361	     -2.41402520	     -5.41283297	     -1.60137185	      3.28864297	    -10.95422092	     13.68852368	     -2.14083167	     -0.82114966	     -2.24461693	     -3.97227768
      0.04000000	      2.91380686	     -0.53117608	      3.81404052	     -0.65622943	      1.08514512	      1.14232448	     -5.75807215	      1.30543285	     -9.28621515	     -9.49324047	     12.93553703	     -2.40373148	     -5.38871990	     -1.55642712	      3.41484077	    -10.87296955	     13.62989577	     -2.16623904	     -0.81127262	     -2.25151825	     -4.06123190
      0.05000000	      2.87929043	     -0.50535394	      3.95085772	     -0.65658125	      1.08515222	      1.14167006	     -5.72973685	      1.26208791	     -9.41857402	     -9.46623318	     12.91995858	     -2.38682626	     -5.35476590	     -1.51154265	      3.54470812	    -10.80829646	     13.57705627	     -2.19919542	     -0.81143033	     -2.25632229	     -4.13719782
      0.06000000	      2.84892438	     -0.48527555	      4.07790168	     -0.65695952	      1.08516286	      1.14102023	     -5.69704544	      1.22256088	     -9.54269294	     -9.45131552	     12.90740810	     -2.36600712	     -5.31582428	     -1.47037697	      3.66353854	    -10.76029359	     13.53304805	     -2.24034245	     -0.81838875	     -2.25465602	     -4.19660712
      0.07000000	      2.82287305	     -0.47222673	      4.18314426	     -0.65737120	      1.08517706	      1.14040791	     -5.65925252	      1.18818061	     -9.64623536	     -9.44656140	     12.89394500	     -2.34475496	     -5.27336649	     -1.43451866	      3.76844154	    -10.72749403	     13.49741797	     -2.28244416	     -0.83631001	     -2.24798475	     -4.22560500
      0.08000000	      2.80141791	     -0.46500283	      4.26450942	     -0.65783290	      1.08519550	      1.13983961	     -5.61192463	      1.15700342	     -9.73039975	     -9.45901269	     12.88247315	     -2.32434287	     -5.22803086	     -1.40268974	      3.85756256	    -10.70842085	     13.46988643	     -2.32403603	     -0.86852350	     -2.23463589	     -4.23213720
      0.09000000	      2.79713274	     -0.46906903	      4.30481411	     -0.65832280	      1.08523172	      1.13934014	     -5.57786224	      1.13811861	     -9.74702963	     -9.47049608	     12.87293782	     -2.31915192	     -5.19244855	     -1.38146494	      3.89455005	    -10.71004606	     13.45798444	     -2.33400469	     -0.92532223	     -2.20700617	     -4.19256793
      0.10000000	      2.79157028	     -0.47397304	      4.33134591	     -0.65885198	      1.08526689	      1.13886941	     -5.52599846	      1.11583977	     -9.77758932	     -9.50562163	     12.85506573	     -2.31344477	     -5.15921405	     -1.36048814	      3.93748657	    -10.70255814	     13.44647629	     -2.34621044	     -0.98740746	     -2.17847128	     -4.15474602
      0.11000000	      2.75149472	     -0.47046689	      4.34968159	     -0.65939458	      1.08525126	      1.13840555	     -5.41853443	      1.07526166	     -9.87259808	     -9.57229198	     12.85783123	     -2.28824375	     -5.09596958	     -1.32655472	      3.98723311	    -10.68195341	     13.42695041	     -2.40296909	     -1.01101442	     -2.16140944	     -4.13139597
      0.12000000	      2.74829323	     -0.48048895	      4.34383862	     -0.65999520	      1.08528271	      1.13799605	     -5.35767302	      1.05620911	     -9.87270526	     -9.61439684	     12.84178783	     -2.28374258	     -5.05651268	     -1.30935306	      4.01312947	    -10.69035821	     13.41882340	     -2.41331816	     -1.08733675	     -2.12546019	     -4.09262319
      0.13000000	      2.67586207	     -0.48613357	      4.29345496	     -0.66061803	      1.08521126	      1.13763674	     -5.18900381	      1.01512911	     -9.88397604	     -9.71261609	     12.86033348	     -2.25325847	     -4.94524092	     -1.27838328	      3.97645898	    -10.69843480	     13.40707092	     -2.49203435	     -1.08075179	     -2.09637623	     -4.01944881
      0.14000000	      2.67419364	     -0.50178975	      4.25787668	     -0.66122886	      1.08524290	      1.13727288	     -5.11599709	      0.99706150	     -9.89701520	     -9.77124842	     12.83348122	     -2.25323554	     -4.92039603	     -1.26625424	      3.98859084	    -10.68587208	     13.40287498	     -2.49767637	     -1.15740005	     -2.05058420	     -3.98834801
      0.15000000	      2.61816344	     -0.51243437	      4.17490602	     -0.66184412	      1.08519244	      1.13695726	     -4.96244002	      0.96036869	     -9.87769533	     -9.86772628	     12.84586250	     -2.24169613	     -4.83284122	     -1.24120754	      3.91677030	    -10.68769200	     13.39389885	     -2.54616945	     -1.16405340	     -2.01071436	     -3.91361732
      0.16000000	      2.61889600	     -0.52721891	      4.13009418	     -0.66243803	      1.08522613	      1.13658517	     -4.88828310	      0.93888470	     -9.87969785	     -9.93424728	     12.82278374	     -2.24182554	     -4.81240844	     -1.22701090	      3.92191612	    -10.67494186	     13.38755069	     -2.55126476	     -1.23467937	     -1.96091084	     -3.90432325
      0.17000000	      2.59044253	     -0.54160696	      4.04778295	     -0.66299790	      1.08521318	      1.13624656	     -4.76414252	      0.90695847	     -9.87274273	    -10.03545669	     12.83321529	     -2.23330281	     -4.76287268	     -1.20768311	      3.85685847	    -10.66649405	     13.37434998	     -2.58237383	     -1.25911921	     -1.91224664	     -3.84230041
      0.18000000	      2.56276334	     -0.55129557	      3.98342465	     -0.66354717	      1.08520235	      1.13585421	     -4.64779221	      0.87235864	     -9.82337142	    -10.13195148	     12.84118922	     -2.21906467	     -4.70929144	     -1.18195419	      3.81999408	    -10.66743764	     13.36323042	     -2.61766728	     -1.28013760	     -1.86319688	     -3.82205332
      0.19000000	      2.55197554	     -0.56032417	      3.93666823	     -0.66404767	      1.08521640	      1.13543155	     -4.55938003	      0.84110847	     -9.78484713	    -10.21733324	     12.84458344	     -2.20498078	     -4.67752847	     -1.15807691	      3.80121917	    -10.66330530	     13.35396736	     -2.64597162	     -1.31196657	     -1.81395975	     -3.83457784
      0.20000000	      2.56105226	     -0.56723854	      3.91036844	     -0.66449039	      1.08525982	      1.13496544	     -4.50752015	      0.81227027	     -9.74657448	    -10.28333160	     12.83282613	     -2.20114280	     -4.67303456	     -1.13471506	      3.80271372	    -10.65037354	     13.35092842	     -2.65219060	     -1.35755912	     -1.76428051	     -3.88230486
      0.21000000	      2.55845631	     -0.57294528	      3.86642295	     -0.66492580	      1.08528081	      1.13450979	     -4.42637752	      0.77633534	     -9.70067070	    -10.38148789	     12.86016890	     -2.17661153	     -4.65487122	     -1.10665894	      3.78275063	    -10.64421351	     13.33158278	     -2.68824619	     -1.38550411	     -1.71539629	     -3.89189100
